<?xml version="1.0" encoding="utf-8"?>
<!-- Generator: Adobe Illustrator 22.0.1, SVG Export Plug-In . SVG Version: 6.00 Build 0)  -->
<svg version="1.1" xmlns="http://www.w3.org/2000/svg" xmlns:xlink="http://www.w3.org/1999/xlink" x="0px" y="0px"
	 viewBox="0 0 100 100" style="enable-background:new 0 0 100 100;" xml:space="preserve">
<style type="text/css">
	.st0{fill:url(#SVGID_1_);}
	.st1{fill:url(#SVGID_2_);}
	.st2{fill:none;stroke:#F6D365;stroke-width:4;stroke-linecap:round;stroke-miterlimit:10;}
	.st3{fill:#ECA72D;stroke:#F6D365;stroke-width:4;stroke-linecap:round;stroke-miterlimit:10;}
	.st4{fill:url(#SVGID_3_);}
	.st5{fill:url(#SVGID_4_);}
	.st6{fill:url(#SVGID_5_);}
</style>
<g id="main">
	<linearGradient id="SVGID_1_" gradientUnits="userSpaceOnUse" x1="50" y1="83" x2="50" y2="98">
		<stop  offset="0" style="stop-color:#F6D365"/>
		<stop  offset="1" style="stop-color:#FDA085"/>
	</linearGradient>
	<circle class="st0" cx="50" cy="90.5" r="7.5"/>
	<linearGradient id="SVGID_2_" gradientUnits="userSpaceOnUse" x1="50" y1="17.5" x2="50" y2="2.5">
		<stop  offset="0" style="stop-color:#F6D365"/>
		<stop  offset="1" style="stop-color:#FDA085"/>
	</linearGradient>
	<circle class="st1" cx="50" cy="10" r="7.5"/>
	<line class="st2" x1="50" y1="83" x2="50" y2="18"/>
</g>
<g id="g1">
	<line class="st2" x1="30.5" y1="58.5" x2="30.5" y2="43.5"/>
	<line class="st3" x1="50" y1="70.4" x2="30.5" y2="58.5"/>
</g>
<g id="g2">
	<line class="st3" x1="50" y1="70.4" x2="10" y2="47.3"/>
	<linearGradient id="SVGID_3_" gradientUnits="userSpaceOnUse" x1="10" y1="35" x2="10" y2="20">
		<stop  offset="0" style="stop-color:#F6D365"/>
		<stop  offset="1" style="stop-color:#FDA085"/>
	</linearGradient>
	<circle class="st4" cx="10" cy="27.5" r="7.5"/>
	<line class="st2" x1="9.5" y1="47" x2="9.5" y2="35"/>
</g>
<g id="d1">
	<linearGradient id="SVGID_4_" gradientUnits="userSpaceOnUse" x1="90" y1="49.5" x2="90" y2="34.5">
		<stop  offset="0" style="stop-color:#F6D365"/>
		<stop  offset="1" style="stop-color:#FDA085"/>
	</linearGradient>
	<circle class="st5" cx="90" cy="42" r="7.5"/>
	<line class="st2" x1="89.4" y1="58.5" x2="50.4" y2="79"/>
	<line class="st2" x1="89.5" y1="57.5" x2="89.5" y2="49.5"/>
</g>
<g id="d2">
	<linearGradient id="SVGID_5_" gradientUnits="userSpaceOnUse" x1="69" y1="30.5" x2="69" y2="15.5">
		<stop  offset="0" style="stop-color:#F6D365"/>
		<stop  offset="1" style="stop-color:#FDA085"/>
	</linearGradient>
	<circle class="st6" cx="69" cy="23" r="7.5"/>
	<line class="st2" x1="68.4" y1="39.5" x2="50.4" y2="49"/>
	<line class="st2" x1="68.5" y1="38.5" x2="68.5" y2="30.5"/>
</g>
</svg>
