<?xml version="1.0" encoding="utf-8"?>
<!-- Generator: Adobe Illustrator 22.0.1, SVG Export Plug-In . SVG Version: 6.00 Build 0)  -->
<svg version="1.1" id="Calque_1" xmlns="http://www.w3.org/2000/svg" xmlns:xlink="http://www.w3.org/1999/xlink" x="0px" y="0px"
	 viewBox="0 0 60 60" style="enable-background:new 0 0 60 60;" xml:space="preserve">
<style type="text/css">
	.st0{fill:#C7A96E;}
	.st1{fill:#9A835E;}
	.st2{fill:#9A835F;}
</style>
<g>
	<path class="st0" d="M52.9,4C49.5,8,42.5,14.4,42.5,14.4l-2.3,0c0,0-15.7,0.1-23.6,0c-2,0-2.7,0.5-2.7,2.6c0.1,7.9,0,15.7,0.1,23.6
		c0,1.7-0.4,3-1.7,4.1c-2.9,2.6-5.6,5.3-8.4,8c-0.7-0.5-0.3-1.3-0.3-2.1c0-14.6,0-29.2-0.1-43.7C3.5,4.7,4,4,6.4,4
		C21.6,4.1,36.9,4,52.9,4z"/>
	<path class="st1" d="M57.1,16.7c0,12.7,0,38.2,0,38.2l0,2.8l-2.1,0l-44-0.1l-1.8,0c0,0,5.7-5.3,8.2-7.6c0.9-0.9,2-0.6,3-0.6
		c8.6,0,17.3-0.1,25.9,0c2,0,2.7-0.5,2.6-2.6c-0.1-8.6,0-17.2-0.1-25.8c0-1.8,0.7-3.6,2.1-4.8c2.2-1.9,4.1-4.2,6.2-6.3
		C57.1,12.2,57.1,14.5,57.1,16.7z"/>
	<polygon class="st2" points="38.3,39.1 24.4,39.1 24.3,24.6 38.3,24.6 	"/>
</g>
</svg>
